HIERARCHY
ROOT root
{
	OFFSET	0	13.1	24.9
	CHANNELS 6  Xposition Yposition Zposition Xrotation Yrotation Zrotation
	JOINT spine_1
	{
		OFFSET	0	9.99999	0
		CHANNELS 3  Xrotation Yrotation Zrotation
		JOINT spine_2
		{
			OFFSET	0	112	-10
			CHANNELS 3  Xrotation Yrotation Zrotation
			JOINT spine_3
			{
				OFFSET	0	206.5	19.3
				CHANNELS 3  Xrotation Yrotation Zrotation
				JOINT spine_4
				{
					OFFSET	0	110.4	14.6
					CHANNELS 3  Xrotation Yrotation Zrotation
					JOINT neck_1
					{
						OFFSET	0	71.8	-50.3
						CHANNELS 3  Xrotation Yrotation Zrotation
						JOINT neck_2
						{
							OFFSET	0	86.2	-25.8
							CHANNELS 3  Xrotation Yrotation Zrotation
							JOINT head_ee
							{
								OFFSET	0	179.8	-8.7
								CHANNELS 3  Xrotation Yrotation Zrotation
								End Site
								{
									OFFSET	1	0	0
								}
							}
						}
					}
					JOINT left_clavicle
					{
						OFFSET	-43.2	22.4	-70.8
						CHANNELS 3  Xrotation Yrotation Zrotation
						JOINT left_shoulder
						{
							OFFSET	-93.9	-5.79999	48.7
							CHANNELS 3  Xrotation Yrotation Zrotation
							JOINT left_elbow
							{
								OFFSET	-291.4	-30.8	15.2
								CHANNELS 3  Xrotation Yrotation Zrotation
								JOINT left_lowarm_twist
								{
									OFFSET	-110.7	-3.89999	13.6
									CHANNELS 3  Xrotation Yrotation Zrotation
									JOINT left_hand
									{
										OFFSET	-110.7	-3.89999	13.6
										CHANNELS 3  Xrotation Yrotation Zrotation
										JOINT left_ee
										{
											OFFSET	-80.8	-5.10001	12.1
											CHANNELS 3  Xrotation Yrotation Zrotation
											End Site
											{
												OFFSET	1	0	0
											}
										}
									}
								}
							}
						}
					}
					JOINT right_clavicle
					{
						OFFSET	43.2	22.4	-70.8
						CHANNELS 3  Xrotation Yrotation Zrotation
						JOINT right_shoulder
						{
							OFFSET	93.9	-5.79999	48.7
							CHANNELS 3  Xrotation Yrotation Zrotation
							JOINT right_elbow
							{
								OFFSET	291.4	-30.8	15.2
								CHANNELS 3  Xrotation Yrotation Zrotation
								JOINT right_lowarm_twist
								{
									OFFSET	110.7	-3.89999	13.6
									CHANNELS 3  Xrotation Yrotation Zrotation
									JOINT right_hand
									{
										OFFSET	110.7	-3.89999	13.6
										CHANNELS 3  Xrotation Yrotation Zrotation
										JOINT right_ee
										{
											OFFSET	80.8	-5.10001	12.1
											CHANNELS 3  Xrotation Yrotation Zrotation
											End Site
											{
												OFFSET	1	0	0
											}
										}
									}
								}
							}
						}
					}
				}
			}
		}
	}
	JOINT left_hip
	{
		OFFSET	-82.8	-127.5	0.300001
		CHANNELS 3  Xrotation Yrotation Zrotation
		JOINT left_knee
		{
			OFFSET	-28.2	-396.7	2.2
			CHANNELS 3  Xrotation Yrotation Zrotation
			JOINT left_ankle
			{
				OFFSET	-11.7	-411.3	35.4
				CHANNELS 3  Xrotation Yrotation Zrotation
				JOINT left_toes
				{
					OFFSET	0	-60	-88.6
					CHANNELS 3  Xrotation Yrotation Zrotation
					JOINT left_foot_ee
					{
						OFFSET	-22.5	-16.5	-42.2
						CHANNELS 3  Xrotation Yrotation Zrotation
						End Site
						{
							OFFSET	1	0	0
						}
					}
				}
			}
		}
	}
	JOINT right_hip
	{
		OFFSET	82.8	-127.5	0.300001
		CHANNELS 3  Xrotation Yrotation Zrotation
		JOINT right_knee
		{
			OFFSET	28.2	-396.7	2.2
			CHANNELS 3  Xrotation Yrotation Zrotation
			JOINT right_ankle
			{
				OFFSET	11.7	-411.3	35.4
				CHANNELS 3  Xrotation Yrotation Zrotation
				JOINT right_toes
				{
					OFFSET	0	-60	-88.6
					CHANNELS 3  Xrotation Yrotation Zrotation
					JOINT right_foot_ee
					{
						OFFSET	22.5	-16.5	-42.2
						CHANNELS 3  Xrotation Yrotation Zrotation
						End Site
						{
							OFFSET	1	0	0
						}
					}
				}
			}
		}
	}
}
MOTION
Frames: 10
Frame Time: 0.02
1041.4 574.639 -1682.42 17.1397562577 51.6883563475 -14.5057462808 -2.57135 0.953594 2.18404 -2.56906 0.812721 2.24026 -2.53316 0.219414 2.37294 -2.54053 0.591322 2.30856 -17.6559 2.26131 -3.81868 -17.6646 6.4429 -2.71907 -0.0 0.0 -0.0 -0.676297 5.41246 -0.590911 -19.2109 -12.733 76.3054 0.439446 -12.2812 0.0472785 -30.2421 -1.97813 3.27549 4.75701 0.53126 33.997 -0.0 0.0 -0.0 4.61877 19.918 -7.62006 7.08032 6.77252 -65.1947 1.96549 44.2301 -0.798769 37.207 0.212018 4.66575 0.503234 -20.029 -11.1205 0.0 0.0 0.0 8.42473 -26.8986 -0.577211 -8.65138 0.258359 1.30133 22.8545 16.4571 -3.12171 -17.7247 0.0 0.0 -0.0 0.0 -0.0 -11.1962 6.44478 2.89334 -31.983 0.0369823 -4.84495 21.3818 -9.81967 2.90402 40.1469 -0.0 -0.0 0.0 0.0 0.0 
1041.4 574.639 -1682.42 17.4534094096 52.4730034199 -14.9033309006 -2.57135 0.953594 2.18404 -2.56906 0.812721 2.24026 -2.53316 0.219414 2.37294 -2.54053 0.591322 2.30856 -17.6559 2.26131 -3.81868 -17.6646 6.4429 -2.71907 -0.0 0.0 -0.0 -0.676297 5.41246 -0.590911 -19.2109 -12.733 76.3054 0.439446 -12.2812 0.0472785 -30.2421 -1.97813 3.27549 4.75701 0.53126 33.997 -0.0 0.0 -0.0 4.61877 19.918 -7.62006 7.08032 6.77252 -65.1947 1.96549 44.2301 -0.798769 37.207 0.212018 4.66575 0.503234 -20.029 -11.1205 0.0 0.0 0.0 8.42473 -26.8986 -0.577211 -8.65138 0.258359 1.30133 22.8545 16.4571 -3.12171 -17.7247 0.0 0.0 -0.0 0.0 -0.0 -11.1962 6.44478 2.89334 -31.983 0.0369823 -4.84495 21.3818 -9.81967 2.90402 40.1469 -0.0 -0.0 0.0 0.0 0.0 
1041.4 574.639 -1682.42 17.8676874535 53.4547922419 -15.4222893992 -2.57135 0.953594 2.18404 -2.56906 0.812721 2.24026 -2.53316 0.219414 2.37294 -2.54053 0.591322 2.30856 -17.6559 2.26131 -3.81868 -17.6646 6.4429 -2.71907 -0.0 0.0 -0.0 -0.676297 5.41246 -0.590911 -19.2109 -12.733 76.3054 0.439446 -12.2812 0.0472785 -30.2421 -1.97813 3.27549 4.75701 0.53126 33.997 -0.0 0.0 -0.0 4.61877 19.918 -7.62006 7.08032 6.77252 -65.1947 1.96549 44.2301 -0.798769 37.207 0.212018 4.66575 0.503234 -20.029 -11.1205 0.0 0.0 0.0 8.42473 -26.8986 -0.577211 -8.65138 0.258359 1.30133 22.8545 16.4571 -3.12171 -17.7247 0.0 0.0 -0.0 0.0 -0.0 -11.1962 6.44478 2.89334 -31.983 0.0369823 -4.84495 21.3818 -9.81967 2.90402 40.1469 -0.0 -0.0 0.0 0.0 0.0 
1041.4 574.639 -1682.42 18.2402389744 54.2890784829 -15.8835255026 -2.57135 0.953594 2.18404 -2.56906 0.812721 2.24026 -2.53316 0.219414 2.37294 -2.54053 0.591322 2.30856 -17.6559 2.26131 -3.81868 -17.6646 6.4429 -2.71907 -0.0 0.0 -0.0 -0.676297 5.41246 -0.590911 -19.2109 -12.733 76.3054 0.439446 -12.2812 0.0472785 -30.2421 -1.97813 3.27549 4.75701 0.53126 33.997 -0.0 0.0 -0.0 4.61877 19.918 -7.62006 7.08032 6.77252 -65.1947 1.96549 44.2301 -0.798769 37.207 0.212018 4.66575 0.503234 -20.029 -11.1205 0.0 0.0 0.0 8.42473 -26.8986 -0.577211 -8.65138 0.258359 1.30133 22.8545 16.4571 -3.12171 -17.7247 0.0 0.0 -0.0 0.0 -0.0 -11.1962 6.44478 2.89334 -31.983 0.0369823 -4.84495 21.3818 -9.81967 2.90402 40.1469 -0.0 -0.0 0.0 0.0 0.0 
1041.4 574.639 -1682.42 18.7225929183 55.3071655302 -16.4738059331 -2.57135 0.953594 2.18404 -2.56906 0.812721 2.24026 -2.53316 0.219414 2.37294 -2.54053 0.591322 2.30856 -17.6559 2.26131 -3.81868 -17.6646 6.4429 -2.71907 -0.0 0.0 -0.0 -0.676297 5.41246 -0.590911 -19.2109 -12.733 76.3054 0.439446 -12.2812 0.0472785 -30.2421 -1.97813 3.27549 4.75701 0.53126 33.997 -0.0 0.0 -0.0 4.61877 19.918 -7.62006 7.08032 6.77252 -65.1947 1.96549 44.2301 -0.798769 37.207 0.212018 4.66575 0.503234 -20.029 -11.1205 0.0 0.0 0.0 8.42473 -26.8986 -0.577211 -8.65138 0.258359 1.30133 22.8545 16.4571 -3.12171 -17.7247 0.0 0.0 -0.0 0.0 -0.0 -11.1962 6.44478 2.89334 -31.983 0.0369823 -4.84495 21.3818 -9.81967 2.90402 40.1469 -0.0 -0.0 0.0 0.0 0.0 
1041.4 574.639 -1682.42 19.100446704 56.0599663601 -16.9312804931 -2.57135 0.953594 2.18404 -2.56906 0.812721 2.24026 -2.53316 0.219414 2.37294 -2.54053 0.591322 2.30856 -17.6559 2.26131 -3.81868 -17.6646 6.4429 -2.71907 -0.0 0.0 -0.0 -0.676297 5.41246 -0.590911 -19.2109 -12.733 76.3054 0.439446 -12.2812 0.0472785 -30.2421 -1.97813 3.27549 4.75701 0.53126 33.997 -0.0 0.0 -0.0 4.61877 19.918 -7.62006 7.08032 6.77252 -65.1947 1.96549 44.2301 -0.798769 37.207 0.212018 4.66575 0.503234 -20.029 -11.1205 0.0 0.0 0.0 8.42473 -26.8986 -0.577211 -8.65138 0.258359 1.30133 22.8545 16.4571 -3.12171 -17.7247 0.0 0.0 -0.0 0.0 -0.0 -11.1962 6.44478 2.89334 -31.983 0.0369823 -4.84495 21.3818 -9.81967 2.90402 40.1469 -0.0 -0.0 0.0 0.0 0.0 
1041.4 574.639 -1682.42 19.6522065333 57.0953078911 -17.5923321042 -2.57135 0.953594 2.18404 -2.56906 0.812721 2.24026 -2.53316 0.219414 2.37294 -2.54053 0.591322 2.30856 -17.6559 2.26131 -3.81868 -17.6646 6.4429 -2.71907 -0.0 0.0 -0.0 -0.676297 5.41246 -0.590911 -19.2109 -12.733 76.3054 0.439446 -12.2812 0.0472785 -30.2421 -1.97813 3.27549 4.75701 0.53126 33.997 -0.0 0.0 -0.0 4.61877 19.918 -7.62006 7.08032 6.77252 -65.1947 1.96549 44.2301 -0.798769 37.207 0.212018 4.66575 0.503234 -20.029 -11.1205 0.0 0.0 0.0 8.42473 -26.8986 -0.577211 -8.65138 0.258359 1.30133 22.8545 16.4571 -3.12171 -17.7247 0.0 0.0 -0.0 0.0 -0.0 -11.1962 6.44478 2.89334 -31.983 0.0369823 -4.84495 21.3818 -9.81967 2.90402 40.1469 -0.0 -0.0 0.0 0.0 0.0 
1041.4 574.639 -1682.42 20.3916896744 58.3763630924 -18.4667839121 -2.57135 0.953594 2.18404 -2.56906 0.812721 2.24026 -2.53316 0.219414 2.37294 -2.54053 0.591322 2.30856 -17.6559 2.26131 -3.81868 -17.6646 6.4429 -2.71907 -0.0 0.0 -0.0 -0.676297 5.41246 -0.590911 -19.2109 -12.733 76.3054 0.439446 -12.2812 0.0472785 -30.2421 -1.97813 3.27549 4.75701 0.53126 33.997 -0.0 0.0 -0.0 4.61877 19.918 -7.62006 7.08032 6.77252 -65.1947 1.96549 44.2301 -0.798769 37.207 0.212018 4.66575 0.503234 -20.029 -11.1205 0.0 0.0 0.0 8.42473 -26.8986 -0.577211 -8.65138 0.258359 1.30133 22.8545 16.4571 -3.12171 -17.7247 0.0 0.0 -0.0 0.0 -0.0 -11.1962 6.44478 2.89334 -31.983 0.0369823 -4.84495 21.3818 -9.81967 2.90402 40.1469 -0.0 -0.0 0.0 0.0 0.0 
1017.84510496 580.577 -1686.50244969 24.0404170131 61.8885976318 -21.6705146993 -2.67442 1.02591 1.75503 -2.67317 0.912177 1.81673 -2.64132 0.419097 1.98915 -2.6461 0.727931 1.89805 -19.4755 2.4736 -3.58009 -19.5015 6.61816 -2.32081 -0.0 0.0 -0.0 -1.04382 5.03065 -1.31617 -18.3508 -13.4143 75.396 0.5923 -16.3522 0.0851005 -31.5894 -2.10429 3.39355 5.24906 -2.51149 36.6955 -0.0 0.0 -0.0 4.16692 17.7609 -6.83829 5.34716 6.11167 -65.5415 1.78374 41.4605 -0.675143 36.3069 0.17124 4.55814 0.301626 -18.4386 -9.31628 0.0 0.0 0.0 7.57564 -28.2734 -0.313515 -9.00229 0.264667 1.35481 21.653 16.7229 -2.97633 -17.6637 0.0 0.0 -0.0 0.0 -0.0 -9.77043 5.8056 2.18801 -37.3543 0.307085 -5.62432 19.9342 -10.4643 2.72714 39.9808 -0.0 -0.0 0.0 0.0 0.0 
974.891893211 589.486 -1685.69044835 25.979440825 63.3707518697 -23.546108041 -2.62065 0.649809 1.46145 -2.61964 0.555507 1.49983 -2.60322 0.155846 1.59177 -2.60652 0.405251 1.5472 -20.9884 3.12149 -2.36466 -21.0542 7.18195 -0.83479 -0.0 0.0 -0.0 -0.288065 4.66829 0.0252613 -15.6108 -15.5846 74.4426 0.595627 -16.4392 0.0860399 -32.4027 -2.18178 3.46337 5.36236 -2.50193 37.6587 -0.0 0.0 -0.0 3.87698 17.3267 -6.25518 0.651954 5.84722 -66.6726 1.61692 38.6909 -0.567712 38.0184 0.250225 4.76221 0.550619 -18.4962 -10.864 0.0 0.0 0.0 6.05381 -28.3409 1.11615 -11.5074 0.300167 1.73752 22.7617 14.0656 -3.09136 -16.7202 0.0 0.0 -0.0 0.0 -0.0 -9.90043 8.21871 2.46729 -39.1188 0.411658 -5.87453 18.7083 -12.4709 2.58005 40.1601 -0.0 -0.0 0.0 0.0 0.0 
